<svg xmlns="http://www.w3.org/2000/svg" viewBox="0 0 536.73 57.44" width="536.73" height="57.44"><g id="Layer_2" data-name="Layer 2"><g id="Layer_1-2" data-name="Layer 1"><path d="M536.73,15.1C534.35,5.42,526.88,0,517.94,0,508.5,0,500.3,5.74,500.3,16.58c0,19.36,26,13.53,26,25,0,4-3.12,6.48-8,6.48-5.42,0-9.52-3.28-10.59-9.93l-8.29,4.43c2.22,10.92,10.92,14.86,18.88,14.86,9.1,0,17.39-5,17.39-16.25,0-20-26-13.79-26-25.11,0-3.94,3.12-6.73,8.2-6.73s8.79,3.2,10.1,9.36Zm-114.18,16a25.86,25.86,0,0,0,26.34,26.34c15,0,26.42-11.33,26.42-26.34V0H466V31.1a17,17,0,1,1-34.05,0V0h-9.35ZM390.23,0h-9.35V57.44h9.35ZM347.75,57.44V0H338.4V41.68L304.27,0H296V57.44h9.35V16.16l34,41.28Zm-119.53,0h36.19V48.08H237.58V33.39h26.83V24H237.58V9.35h26.83V0H228.22ZM171.76,30.11H161.17V9.35h13.05a10.17,10.17,0,0,1,10.42,10.34,10.34,10.34,0,0,1-6,9.52s-2,.9-6.89.9m-10.59,9.36H175l14.6,18H201.7L184.8,36.6a19.29,19.29,0,0,0,9.11-16.91C193.91,8.37,185.54,0,174.22,0h-22.4V57.44h9.35ZM96.55,48.08c-11.16,0-19.28-8.2-19.28-19.36S85.39,9.35,96.55,9.35s19.28,8.21,19.28,19.37-8.12,19.36-19.28,19.36M96.55,0C80.14,0,67.91,12.31,67.91,28.72S80.14,57.44,96.55,57.44s28.63-12.31,28.63-28.72S113,0,96.55,0M9.35,9.35H24.29a6.74,6.74,0,0,1,7.05,7.14c0,4.35-2.79,7.55-6.64,7.55H9.35Zm0,24H24.7c3.85,0,6.64,3.21,6.64,7.55a6.74,6.74,0,0,1-7,7.14H9.35ZM0,57.44H24.29A16,16,0,0,0,40.7,40.94a15.85,15.85,0,0,0-5.91-12.22A16.11,16.11,0,0,0,40.7,16.49,16,16,0,0,0,24.29,0H0Z" fill="#ffffff"/></g></g></svg>