<svg width="204" height="256" viewBox="0 0 204 256" fill="none" xmlns="http://www.w3.org/2000/svg">
<path d="M180.745 80.6993C189.625 85.1729 196.615 92.671 200.455 101.842C204.021 93.3217 204.659 83.8586 202.268 74.9366C199.878 66.0146 194.594 58.1382 187.245 52.5423C188.501 62.4029 186.196 72.387 180.745 80.6993ZM160.449 68.0093C168.51 69.6853 175.707 74.1857 180.743 80.6993C181.775 73.1173 180.259 65.4075 176.434 58.7804C172.608 52.1533 166.69 46.9844 159.609 44.0853C162.728 51.7053 163.026 60.1892 160.449 68.0093ZM141.487 62.2093C148.296 61.8185 155.021 63.8753 160.447 68.0083C159.645 61.7208 156.778 55.8776 152.297 51.3957C147.815 46.9138 141.971 44.047 135.684 43.2453C139.814 48.6748 141.872 55.3984 141.487 62.2093ZM125.066 61.6293C130.433 59.8536 136.258 60.0594 141.486 62.2093C139.499 57.3466 135.952 53.2825 131.403 50.6561C126.854 48.0298 121.561 46.9903 116.356 47.7013C120.823 51.1608 123.911 56.0982 125.066 61.6293Z" fill="white"/>
<path d="M159.607 44.0853C169.533 43.5189 179.334 46.5191 187.242 52.5443C186.075 43.3795 181.897 34.862 175.364 28.3296C168.831 21.7972 160.313 17.62 151.148 16.4543C157.171 24.3616 160.171 34.1603 159.608 44.0843" fill="white"/>
<path d="M135.684 43.2433C143.504 40.6655 151.987 40.9634 159.607 44.0833C156.704 37.004 151.533 31.0881 144.907 27.263C138.28 23.4378 130.571 21.9196 122.989 22.9463C129.504 27.983 134.006 35.181 135.684 43.2433ZM116.357 47.6993C122.062 43.9567 128.917 42.3757 135.684 43.2433C131.845 38.1986 126.44 34.572 120.317 32.9305C114.194 31.289 107.699 31.7265 101.851 34.1743C108.145 36.8078 113.29 41.6043 116.357 47.6993Z" fill="white"/>
<path d="M101.851 55.4053C105.612 51.1881 110.757 48.4556 116.357 47.6993C112.204 44.4853 107.102 42.7404 101.851 42.7404C96.5999 42.7404 91.4976 44.4843 87.345 47.6983C92.9448 48.4549 98.0897 51.1883 101.851 55.4053Z" fill="white"/>
<path d="M122.988 22.9453C131.301 17.4919 141.289 15.1891 151.151 16.4523C145.558 9.10001 137.681 3.81352 128.758 1.42291C119.835 -0.967706 110.371 -0.327049 101.851 3.24428C111.021 7.08003 118.517 14.068 122.988 22.9453Z" fill="white"/>
<path d="M101.851 34.1763C107.333 28.0318 114.83 24.0483 122.99 22.9443C116.936 18.2599 109.498 15.7183 101.843 15.7183C94.1889 15.7183 86.7509 18.2599 80.697 22.9443C88.8613 24.0485 96.363 28.0316 101.851 34.1763Z" fill="white"/>
<path d="M87.345 47.6983C90.4096 41.6022 95.5554 36.8067 101.851 34.1763C96.0021 31.7298 89.5067 31.2919 83.3829 32.9331C77.259 34.5742 71.8526 38.2007 68.011 43.2443C74.7808 42.378 81.6373 43.9563 87.345 47.6983ZM78.629 61.6293C79.7774 56.0943 82.8697 51.1534 87.346 47.7013C82.1405 46.9913 76.8466 48.031 72.2964 50.6571C67.7461 53.2832 64.1974 57.3468 62.208 62.2093C67.437 60.0622 73.2615 59.8565 78.629 61.6293Z" fill="white"/>
<path d="M80.7 22.9453C85.1771 14.0671 92.6775 7.08023 101.851 3.24428C93.3317 -0.32915 83.8676 -0.97091 74.9439 1.41984C66.0202 3.81059 58.1437 9.09835 52.552 16.4523C62.4087 15.1911 72.3917 17.4939 80.7 22.9453ZM68.011 43.2443C69.6885 35.1833 74.1881 27.9849 80.7 22.9463C73.1186 21.9187 65.4106 23.4366 58.7849 27.262C52.1592 31.0874 46.9907 37.0038 44.09 44.0833C51.7099 40.9634 60.1931 40.6655 68.013 43.2433M62.208 62.2093C61.8236 55.3988 63.8803 48.6745 68.01 43.2453C61.7225 44.0455 55.8791 46.9119 51.3979 51.3942C46.9167 55.8765 44.0517 61.7206 43.253 68.0083C48.6766 63.8755 55.4005 61.818 62.208 62.2093ZM61.632 78.6233C59.8628 73.2583 60.0671 67.438 62.208 62.2103C57.3475 64.1978 53.2856 67.7446 50.6609 72.2928C48.0363 76.8409 46.9979 82.1325 47.709 87.3353C51.1622 82.8634 56.1004 79.7735 61.632 78.6233Z" fill="white"/>
<path d="M44.088 44.0853C43.5206 34.1605 46.5221 24.3602 52.55 16.4553C43.3861 17.6235 34.8694 21.8013 28.3364 28.333C21.8035 34.8647 17.624 43.3806 16.454 52.5443C24.3621 46.5198 34.1626 43.5204 44.088 44.0853ZM43.253 68.0093C40.6732 60.1897 40.9693 51.706 44.088 44.0853C37.008 46.9875 31.0914 52.1575 27.2662 58.7846C23.4411 65.4117 21.9237 73.1209 22.952 80.7033C27.9878 74.1857 35.1887 69.6831 43.253 68.0083M47.709 87.3353C43.9654 81.6309 42.3849 74.7769 43.253 68.0093C38.207 71.8481 34.5787 77.2538 32.9374 83.3778C31.2962 89.5019 31.735 95.9976 34.185 101.845C36.813 95.5471 41.611 90.3993 47.709 87.3353Z" fill="white"/>
<path d="M55.415 101.844C51.1983 98.0815 48.466 92.9358 47.709 87.3353C44.4949 91.4884 42.75 96.5912 42.75 101.843C42.75 107.094 44.4939 112.197 47.708 116.35C48.4619 110.75 51.1959 105.604 55.415 101.844Z" fill="white"/>
<path d="M22.95 80.7033C17.4983 72.3905 15.1933 62.4045 16.45 52.5433C9.09974 58.1384 3.81557 66.0159 1.427 74.9392C-0.961574 83.8626 -0.319298 93.3265 3.253 101.845C7.08685 92.6742 14.0728 85.1757 22.95 80.7033ZM34.186 101.844C28.0416 96.3613 24.0571 88.8636 22.95 80.7033C18.2641 86.7533 15.7213 94.1898 15.7213 101.842C15.7213 109.495 18.2641 116.93 22.95 122.98C24.057 114.821 28.0416 107.326 34.186 101.844ZM47.709 116.349C41.6151 113.283 36.8183 108.139 34.185 101.846C31.7356 107.693 31.2971 114.188 32.9384 120.311C34.5796 126.434 38.2077 131.838 43.253 135.676C42.3852 128.909 43.9657 122.053 47.709 116.349Z" fill="white"/>
<path d="M61.632 125.063C56.1003 123.912 51.1623 120.821 47.709 116.349C46.9996 121.552 48.0388 126.843 50.6631 131.392C53.2875 135.94 57.3484 139.488 62.208 141.477C60.0682 136.249 59.8639 130.429 61.632 125.063Z" fill="white"/>
<path d="M22.95 122.979C14.0754 118.506 7.09015 111.011 3.253 101.843C-0.318 110.362 -0.959593 119.825 1.4289 128.748C3.8174 137.671 9.10079 145.549 16.45 151.144C15.1935 141.281 17.4984 131.294 22.95 122.979ZM43.253 135.677C35.1886 134 27.9889 129.496 22.952 122.978C21.9163 130.562 23.4314 138.275 27.2589 144.904C31.0863 151.533 37.009 156.701 44.095 159.595C40.9708 151.978 40.6722 143.495 43.253 135.677Z" fill="white"/>
<path d="M62.207 141.469C55.4006 141.861 48.6782 139.806 43.253 135.677C44.0522 141.966 46.9183 147.812 51.4008 152.294C55.8834 156.777 61.7283 159.642 68.017 160.441C63.881 155.012 61.8206 148.284 62.207 141.47" fill="white"/>
<path d="M78.629 142.057C73.2609 143.825 67.4383 143.619 62.208 141.477C64.1997 146.338 67.7489 150.401 72.2985 153.027C76.8482 155.653 82.1408 156.693 87.346 155.986C82.8701 152.533 79.7779 147.592 78.629 142.057Z" fill="white"/>
<path d="M44.095 159.597C34.1676 160.166 24.3638 157.168 16.453 151.143C17.6233 160.307 21.8033 168.824 28.3368 175.355C34.8703 181.887 43.3876 186.064 52.552 187.232C46.5231 179.326 43.5232 169.523 44.095 159.597Z" fill="white"/>
<path d="M68.018 160.442C60.1981 163.022 51.7139 162.723 44.095 159.599C46.9917 166.683 52.1608 172.603 58.7894 176.429C65.418 180.254 73.1301 181.768 80.713 180.732C74.1923 175.704 69.6887 168.506 68.018 160.442ZM87.346 155.986C81.6411 159.729 74.7856 161.309 68.018 160.442C71.8574 165.487 77.2625 169.114 83.3855 170.755C89.5085 172.397 96.0032 171.96 101.851 169.512C95.5546 166.882 90.4096 162.084 87.346 155.986ZM101.851 148.274C98.0905 152.493 92.9454 155.227 87.345 155.984C91.4983 159.197 96.6004 160.939 101.851 160.939C107.102 160.939 112.204 159.197 116.357 155.984C110.757 155.228 105.611 152.493 101.851 148.274Z" fill="white"/>
<path d="M80.713 180.734C72.3996 186.186 62.413 188.492 52.551 187.235C58.1455 194.586 66.0222 199.871 74.9451 202.262C83.8681 204.652 93.3321 204.012 101.852 200.442C92.6792 196.607 85.1812 189.616 80.713 180.734Z" fill="white"/>
<path d="M101.851 169.509C96.3664 175.649 88.8704 179.63 80.712 180.735C86.7612 185.424 94.1975 187.968 101.851 187.968C109.504 187.968 116.941 185.424 122.99 180.735C114.83 179.634 107.333 175.653 101.851 169.509Z" fill="white"/>
<path d="M116.357 155.986C113.287 162.079 108.143 166.876 101.851 169.512C107.699 171.959 114.193 172.396 120.316 170.754C126.439 169.113 131.844 165.486 135.684 160.442C128.916 161.311 122.061 159.73 116.357 155.986Z" fill="white"/>
<path d="M125.066 142.057C123.917 147.59 120.829 152.531 116.357 155.986C121.561 156.694 126.852 155.653 131.4 153.027C135.949 150.401 139.496 146.339 141.486 141.478C136.255 143.616 130.434 143.822 125.066 142.057Z" fill="white"/>
<path d="M122.988 180.734C118.518 189.614 111.022 196.604 101.852 200.442C110.372 204.011 119.834 204.65 128.757 202.26C137.679 199.87 145.556 194.585 151.151 187.235C141.289 188.494 131.301 186.189 122.988 180.735M135.684 160.442C134.007 168.503 129.505 175.699 122.989 180.732C130.571 181.764 138.282 180.248 144.909 176.423C151.537 172.598 156.707 166.681 159.607 159.599C151.988 162.723 143.504 163.022 135.684 160.442ZM141.487 141.478C141.875 148.289 139.817 155.014 135.684 160.441C141.972 159.64 147.815 156.773 152.297 152.291C156.779 147.809 159.646 141.966 160.448 135.678C155.02 139.808 148.296 141.865 141.487 141.478Z" fill="white"/>
<path d="M142.062 125.059C143.835 130.426 143.631 136.249 141.488 141.478C146.347 139.486 150.407 135.938 153.032 131.39C155.657 126.842 156.698 121.552 155.993 116.348C152.536 120.819 147.596 123.908 142.063 125.06" fill="white"/>
<path d="M159.607 159.597C160.17 169.523 157.17 179.322 151.148 187.232C160.313 186.068 168.83 181.891 175.362 175.358C181.894 168.825 186.07 160.307 187.234 151.142C179.328 157.166 169.53 160.165 159.607 159.597ZM160.449 135.677C163.023 143.496 162.725 151.976 159.609 159.595C166.692 156.697 172.611 151.528 176.436 144.9C180.262 138.272 181.777 130.561 180.743 122.978C175.708 129.495 168.511 133.998 160.449 135.677ZM155.993 116.348C159.738 122.052 161.318 128.909 160.447 135.677C165.49 131.836 169.117 126.431 170.758 120.308C172.399 114.184 171.963 107.69 169.517 101.841C166.881 108.134 162.085 113.277 155.993 116.348ZM148.28 101.844C152.501 105.603 155.236 110.749 155.99 116.35C159.203 112.197 160.946 107.094 160.946 101.843C160.946 96.5916 159.203 91.489 155.99 87.3353C155.234 92.937 152.499 98.0825 148.28 101.844Z" fill="white"/>
<path d="M180.745 122.979C186.2 131.292 188.503 141.282 187.238 151.144C194.589 145.549 199.875 137.672 202.267 128.749C204.659 119.826 204.022 110.361 200.456 101.839C196.615 111.01 189.625 118.507 180.745 122.979Z" fill="white"/>
<path d="M169.516 101.842C175.654 107.328 179.636 114.822 180.746 122.979C185.432 116.929 187.975 109.492 187.975 101.839C187.975 94.1861 185.432 86.7498 180.746 80.6993C179.641 88.8599 175.659 96.3578 169.516 101.842ZM155.993 87.3363C162.088 90.4019 166.885 95.5474 169.517 101.841C171.967 95.9942 172.406 89.498 170.764 83.3747C169.122 77.2513 165.493 71.8456 160.447 68.0083C161.316 74.7757 159.736 81.6317 155.993 87.3363ZM142.062 78.6233C147.596 79.7728 152.537 82.8637 155.993 87.3363C156.7 82.1332 155.659 76.8416 153.034 72.2941C150.409 67.7466 146.347 64.1997 141.488 62.2103C143.631 67.4376 143.835 73.259 142.062 78.6233ZM27.695 230.688C24.9943 228.309 21.5094 227.011 17.91 227.044C11.656 227.044 7.389 231.424 7.389 238.079C7.389 244.963 11.882 249.339 17.91 249.339C19.2614 249.387 20.6105 249.195 21.895 248.772V239.334H28.942V252.976C26.272 254.683 21.778 255.538 17.795 255.538C7.052 255.538 0 248.828 0 238.078C0 227.788 7.276 220.625 17.516 220.625C21.0819 220.508 24.609 221.395 27.695 223.185V230.688ZM41.965 254.968H35.138V231.539C38.2781 229.97 41.7467 229.17 45.257 229.206C47.0446 229.177 48.827 229.406 50.549 229.886V236.49C48.9164 235.873 47.1786 235.582 45.434 235.633C44.2554 235.644 43.0855 235.836 41.965 236.201V254.968ZM66.552 244.281H64.274C61.091 244.281 59.214 245.186 59.214 247.349C59.214 249.509 60.976 250.479 63.706 250.479C64.6622 250.489 65.6166 250.394 66.552 250.195V244.281ZM66.552 238.366C66.552 235.923 64.508 234.901 61.996 234.901C59.4042 234.898 56.8638 235.624 54.666 236.998V231.088C57.2863 229.686 60.2227 228.98 63.194 229.038C68.994 229.038 73.319 231.314 73.319 238.075V254.455C70.1775 255.121 66.9762 255.464 63.765 255.48C57.34 255.48 52.392 253.545 52.392 247.69C52.392 242.402 56.654 239.894 63.765 239.894H66.552V238.366ZM79.623 231.255C83.5066 229.84 87.6011 229.091 91.734 229.039C98.332 229.039 102.597 231.485 102.597 239.046V254.971H95.717V239.501C95.717 236.659 94.184 235.186 91.223 235.186C89.6031 235.191 87.993 235.44 86.447 235.923V254.971H79.622L79.623 231.255ZM144.452 254.224C141.027 255.072 137.514 255.512 133.986 255.535C126.653 255.535 122.046 253.262 122.046 245.757V229.605H128.931V245.185C128.931 248.427 130.351 249.909 133.929 249.909C135.151 249.893 136.37 249.778 137.573 249.565V229.605H144.452V254.224ZM151.066 231.255C154.95 229.84 159.045 229.091 163.178 229.039C169.772 229.039 174.038 231.485 174.038 239.046V254.971H167.16V239.501C167.16 236.659 165.622 235.186 162.664 235.186C161.045 235.191 159.435 235.439 157.89 235.923V254.971H151.066V231.255ZM196.879 249.397C195.79 249.594 194.685 249.69 193.579 249.684C188.748 249.684 185.732 246.953 185.732 242.122C185.732 237.628 188.521 235.068 192.671 235.068C194.115 235.021 195.552 235.293 196.879 235.866V249.397ZM196.879 221.227V229.839C195.361 229.245 193.737 228.973 192.108 229.039C184.199 229.039 178.798 234.266 178.798 242.344C178.798 250.878 184.598 255.537 193.357 255.537C196.841 255.557 200.315 255.156 203.703 254.343V221.227H196.879ZM108.99 221.23H115.812V254.972H108.99V221.23Z" fill="white"/>
<path d="M180.745 80.6993C189.625 85.1714 196.616 92.6705 200.455 101.842C204.021 93.3214 204.66 83.8569 202.27 74.9343C199.88 66.0117 194.596 58.1344 187.248 52.5373C188.504 62.3999 186.198 72.3859 180.745 80.6993ZM160.45 68.0073C168.511 69.6828 175.709 74.1842 180.743 80.6993C181.776 73.1176 180.26 65.4076 176.435 58.7803C172.611 52.153 166.693 46.9837 159.612 44.0843C162.734 51.7037 163.032 60.188 160.45 68.0073ZM141.487 62.2043C148.296 61.8191 155.02 63.8779 160.447 68.0083C159.647 61.7199 156.781 55.8745 152.299 51.3921C147.817 46.9096 141.972 44.0433 135.684 43.2433C139.815 48.6701 141.873 55.3948 141.487 62.2043ZM125.07 61.6293C130.435 59.8565 136.258 60.0601 141.486 62.2033C139.497 57.3429 135.95 53.2807 131.402 50.6548C126.854 48.0289 121.563 46.9879 116.359 47.6953C120.828 51.1557 123.917 56.0962 125.07 61.6293Z" fill="white"/>
<path d="M159.61 44.0843C169.535 43.5169 179.336 46.5152 187.245 52.5383C186.076 43.3747 181.898 34.8586 175.365 28.3268C168.833 21.795 160.317 17.6172 151.153 16.4493C157.172 24.3602 160.171 34.1595 159.61 44.0843Z" fill="white"/>
<path d="M135.684 43.2423C143.505 40.6635 151.989 40.9614 159.61 44.0823C156.709 37.0011 151.54 31.0834 144.912 27.2579C138.285 23.4323 130.575 21.9154 122.992 22.9453C129.507 27.9815 134.008 35.1799 135.684 43.2423ZM116.36 47.6943C122.064 43.952 128.918 42.3732 135.684 43.2433C131.846 38.1968 126.441 34.5678 120.318 32.9262C114.194 31.2845 107.698 31.7232 101.851 34.1733C108.145 36.8049 113.291 41.6001 116.36 47.6933M101.852 55.4063C105.614 51.1884 110.76 48.454 116.361 47.6963C112.207 44.484 107.105 42.7412 101.854 42.7412C96.6024 42.7412 91.4999 44.484 87.346 47.6963C92.946 48.4543 98.0908 51.1887 101.852 55.4063Z" fill="white"/>
<path d="M122.991 22.9433C131.304 17.4912 141.29 15.1875 151.151 16.4473C145.557 9.09581 137.681 3.81012 128.758 1.42008C119.834 -0.969961 110.37 -0.329017 101.851 3.24228C111.022 7.07753 118.52 14.065 122.991 22.9433Z" fill="white"/>
<path d="M101.852 34.1753C107.335 28.0314 114.831 24.048 122.991 22.9433C116.939 18.2592 109.504 15.7176 101.851 15.7176C94.1981 15.7176 86.7619 18.2592 80.71 22.9433C88.8703 24.0492 96.3677 28.0323 101.852 34.1753Z" fill="white"/>
<path d="M87.346 47.6943C90.4148 41.6023 95.5584 36.8074 101.851 34.1743C96.0024 31.7274 89.5083 31.2903 83.3846 32.9315C77.261 34.5727 71.854 38.1995 68.013 43.2433C74.7815 42.3741 81.6387 43.9523 87.346 47.6933M78.637 61.6293C79.7841 56.0941 82.8731 51.1508 87.346 47.6943C82.1419 46.9876 76.8505 48.0298 72.3022 50.6556C67.7539 53.2814 64.2062 57.3432 62.216 62.2033C67.4459 60.0607 73.2702 59.8571 78.637 61.6293Z" fill="white"/>
<path d="M80.71 22.9433C85.183 14.0658 92.6812 7.07901 101.852 3.24328C93.3319 -0.327968 83.8672 -0.968996 74.9434 1.42082C66.0196 3.81063 58.142 9.09599 52.547 16.4473C62.4088 15.1884 72.396 17.4921 80.71 22.9433ZM68.016 43.2423C69.6956 35.181 74.1969 27.9836 80.71 22.9453C73.1274 21.9146 65.4171 23.4312 58.7897 27.2568C52.1623 31.0825 46.9929 37.0006 44.093 44.0823C51.7126 40.9614 60.1962 40.6635 68.016 43.2423ZM62.215 62.2043C61.825 55.3945 63.8821 48.6696 68.015 43.2433C61.7272 44.045 55.8836 46.9119 51.4013 51.3939C46.9191 55.876 44.052 61.7195 43.25 68.0073C48.6784 63.8753 55.4039 61.8174 62.215 62.2043ZM61.636 78.6263C59.8664 73.2585 60.0718 67.4342 62.215 62.2043C57.3553 64.1949 53.2942 67.7437 50.6689 72.292C48.0436 76.8403 47.0019 82.1315 47.709 87.3353C51.1628 82.8631 56.1033 79.7747 61.636 78.6263Z" fill="white"/>
<path d="M44.092 44.0843C43.5284 34.1592 46.5274 24.3591 52.549 16.4493C43.3843 17.6153 34.8667 21.7933 28.3346 28.3266C21.8026 34.8599 17.6263 43.3783 16.462 52.5433C24.3674 46.5166 34.1676 43.5162 44.092 44.0843Z" fill="white"/>
<path d="M43.25 68.0073C40.6742 60.1869 40.9728 51.7042 44.092 44.0843C37.0115 46.9859 31.0936 52.1558 27.2683 58.7831C23.4431 65.4103 21.926 73.1198 22.955 80.7023C27.9906 74.1873 35.1886 69.6852 43.25 68.0073ZM47.71 87.3343C43.9657 81.6301 42.3838 74.7754 43.25 68.0073C38.2064 71.8479 34.5803 77.2541 32.9407 83.3778C31.301 89.5015 31.7404 95.9963 34.19 101.843C36.8187 95.5471 41.6148 90.4002 47.71 87.3343Z" fill="white"/>
<path d="M55.419 101.843C51.2022 98.0799 48.4674 92.9348 47.707 87.3343C44.496 91.488 42.754 96.5897 42.754 101.84C42.754 107.09 44.496 112.192 47.707 116.345C48.469 110.747 51.2036 105.605 55.419 101.843Z" fill="white"/>
<path d="M22.955 80.7023C17.5039 72.3886 15.2002 62.4017 16.459 52.5403C9.10833 58.1358 3.82305 66.0131 1.43227 74.9364C-0.958505 83.8597 -0.319516 93.3243 3.249 101.845C7.08675 92.6738 14.0756 85.1746 22.955 80.7023Z" fill="white"/>
<path d="M34.19 101.843C28.0444 96.3612 24.0582 88.8641 22.952 80.7033C18.2667 86.7532 15.7253 94.1883 15.7253 101.84C15.7253 109.492 18.2677 116.927 22.953 122.977C24.0596 114.818 28.0448 107.323 34.19 101.843ZM47.71 116.346C41.6159 113.282 36.8199 108.138 34.19 101.844C31.7411 107.69 31.302 114.184 32.9417 120.306C34.5814 126.429 38.2071 131.834 43.25 135.673C42.3842 128.905 43.966 122.051 47.71 116.346Z" fill="white"/>
<path d="M61.636 125.059C56.1033 123.908 51.1642 120.819 47.71 116.346C47.0032 121.55 48.0441 126.841 50.6693 131.39C53.2945 135.938 57.3554 139.487 62.215 141.478C60.0722 136.249 59.8665 130.426 61.635 125.058" fill="white"/>
<path d="M22.955 122.978C14.0784 118.506 7.09031 111.011 3.249 101.843C-0.319173 110.363 -0.957968 119.827 1.43284 128.749C3.82364 137.671 9.10877 145.547 16.459 151.141C15.1994 141.279 17.503 131.292 22.955 122.978Z" fill="white"/>
<path d="M43.249 135.675C35.1869 133.996 27.9898 129.492 22.955 122.975C21.9212 130.56 23.4369 138.273 27.2638 144.902C31.0908 151.531 37.0121 156.701 44.097 159.598C40.9729 151.98 40.6722 143.496 43.249 135.675ZM62.215 141.469C55.4046 141.862 48.6771 139.807 43.249 135.675C44.0522 141.964 46.9216 147.807 51.4051 152.289C55.8886 156.771 61.7333 159.637 68.022 160.438C63.8824 155.012 61.8225 148.284 62.215 141.47" fill="white"/>
<path d="M78.629 142.054C73.2645 143.826 67.4421 143.622 62.215 141.478C64.2043 146.339 67.7529 150.401 72.3016 153.026C76.8502 155.652 82.1421 156.692 87.346 155.983C82.871 152.529 79.7791 147.588 78.629 142.053" fill="white"/>
<path d="M44.099 159.599C34.1718 160.167 24.3688 157.166 16.46 151.139C17.6264 160.304 21.8037 168.821 28.3358 175.353C34.8679 181.886 43.3849 186.064 52.549 187.231C46.526 179.324 43.5289 169.523 44.099 159.599ZM68.022 160.438C60.202 163.016 51.7187 162.719 44.099 159.598C46.9955 166.681 52.1638 172.601 58.7913 176.427C65.4188 180.252 73.1308 181.767 80.713 180.732C74.1976 175.699 69.6957 168.502 68.022 160.44M87.346 155.983C81.6418 159.725 74.7886 161.304 68.022 160.438C71.8588 165.485 77.2633 169.115 83.3867 170.757C89.5101 172.398 96.0053 171.959 101.852 169.508C95.5599 166.872 90.4158 162.076 87.346 155.983Z" fill="white"/>
<path d="M101.852 148.271C98.0923 152.491 92.9469 155.227 87.346 155.983C91.5004 159.194 96.6028 160.936 101.854 160.936C107.104 160.936 112.207 159.194 116.361 155.983C110.759 155.227 105.613 152.492 101.852 148.271Z" fill="white"/>
<path d="M80.713 180.734C72.3987 186.187 62.411 188.492 52.548 187.235C58.1448 194.584 66.0222 199.868 74.945 202.257C83.8678 204.647 93.3315 204.008 101.852 200.44C92.6813 196.602 85.1841 189.613 80.713 180.734Z" fill="white"/>
<path d="M101.852 169.506C96.3702 175.651 88.8724 179.633 80.712 180.735C86.7623 185.422 94.1987 187.966 101.852 187.966C109.505 187.966 116.942 185.422 122.992 180.735C114.832 179.633 107.334 175.65 101.852 169.506Z" fill="white"/>
<path d="M116.361 155.983C113.289 162.075 108.144 166.871 101.852 169.508C107.7 171.953 114.193 172.389 120.316 170.748C126.438 169.107 131.843 165.481 135.684 160.438C128.918 161.305 122.065 159.725 116.361 155.983ZM125.066 142.054C123.923 147.589 120.836 152.531 116.361 155.983C121.564 156.69 126.854 155.649 131.402 153.024C135.949 150.398 139.497 146.338 141.487 141.478C136.256 143.619 130.434 143.823 125.066 142.054Z" fill="white"/>
<path d="M122.991 180.734C118.52 189.614 111.023 196.603 101.852 200.44C110.372 204.008 119.834 204.648 128.756 202.258C137.679 199.868 145.555 194.584 151.151 187.235C141.29 188.492 131.303 186.187 122.99 180.735M135.684 160.438C134.008 168.5 129.507 175.698 122.992 180.732C130.575 181.765 138.285 180.249 144.913 176.424C151.541 172.599 156.711 166.68 159.61 159.598C151.989 162.719 143.505 163.019 135.684 160.441M141.487 141.478C141.875 148.288 139.817 155.012 135.684 160.438C141.972 159.637 147.815 156.771 152.297 152.289C156.78 147.807 159.646 141.963 160.448 135.675C155.021 139.806 148.297 141.864 141.487 141.478ZM142.067 125.054C143.836 130.423 143.63 136.247 141.488 141.478C146.348 139.488 150.409 135.938 153.034 131.389C155.658 126.841 156.698 121.549 155.99 116.345C152.537 120.817 147.599 123.906 142.067 125.054Z" fill="white"/>
<path d="M159.61 159.599C160.171 169.523 157.172 179.321 151.153 187.231C160.318 186.067 168.835 181.889 175.367 175.356C181.899 168.823 186.075 160.305 187.238 151.14C179.333 157.166 169.534 160.166 159.61 159.599ZM160.45 135.675C163.029 143.495 162.731 151.978 159.612 159.598C166.693 156.698 172.612 151.528 176.436 144.9C180.261 138.272 181.775 130.562 180.742 122.98C175.708 129.496 168.511 133.999 160.45 135.675ZM155.99 116.345C159.735 122.049 161.317 128.905 160.449 135.673C165.491 131.832 169.117 126.427 170.758 120.305C172.4 114.182 171.964 107.688 169.519 101.84C166.884 108.135 162.086 113.279 155.99 116.345Z" fill="white"/>
<path d="M148.284 101.843C152.503 105.601 155.236 110.746 155.99 116.345C159.203 112.193 160.948 107.091 160.949 101.841C160.949 96.5903 159.206 91.4883 155.994 87.3353C155.237 92.9362 152.502 98.0818 148.284 101.843Z" fill="white"/>
<path d="M180.745 122.981C186.203 131.292 188.507 141.28 187.241 151.141C194.592 145.547 199.878 137.67 202.27 128.748C204.662 119.825 204.024 110.36 200.456 101.839C196.618 111.012 189.627 118.51 180.745 122.981Z" fill="white"/>
<path d="M169.516 101.839C175.658 107.324 179.64 114.822 180.746 122.982C185.432 116.931 187.975 109.494 187.975 101.84C187.975 94.1865 185.432 86.7497 180.746 80.6983C179.646 88.86 175.662 96.3579 169.516 101.839Z" fill="white"/>
<path d="M155.996 87.3343C162.09 90.4014 166.887 95.5465 169.519 101.84C171.968 95.9928 172.405 89.4982 170.764 83.3747C169.122 77.2512 165.494 71.8454 160.448 68.0073C161.316 74.7744 159.737 81.629 155.996 87.3343Z" fill="white"/>
<path d="M142.067 78.6213C147.6 79.7733 152.54 82.8627 155.997 87.3333C156.705 82.1292 155.664 76.8374 153.038 72.2891C150.412 67.7408 146.349 64.1938 141.488 62.2053C143.631 67.4335 143.835 73.2549 142.067 78.6213ZM27.695 230.688C24.9943 228.309 21.5094 227.011 17.91 227.044C11.656 227.044 7.389 231.424 7.389 238.079C7.389 244.963 11.882 249.339 17.91 249.339C19.2614 249.387 20.6105 249.195 21.895 248.772V239.334H28.942V252.976C26.272 254.683 21.778 255.538 17.795 255.538C7.052 255.538 0 248.828 0 238.078C0 227.788 7.276 220.625 17.516 220.625C21.0819 220.508 24.609 221.395 27.695 223.185V230.688ZM41.965 254.968H35.138V231.539C38.2781 229.97 41.7467 229.17 45.257 229.206C47.0446 229.177 48.827 229.406 50.549 229.886V236.49C48.9164 235.873 47.1786 235.582 45.434 235.633C44.2554 235.644 43.0855 235.836 41.965 236.201V254.968ZM66.552 244.281H64.274C61.091 244.281 59.214 245.186 59.214 247.349C59.214 249.509 60.976 250.479 63.706 250.479C64.6622 250.489 65.6166 250.394 66.552 250.195V244.281ZM66.552 238.366C66.552 235.923 64.508 234.901 61.996 234.901C59.4042 234.898 56.8638 235.624 54.666 236.998V231.088C57.2863 229.686 60.2227 228.98 63.194 229.038C68.994 229.038 73.319 231.314 73.319 238.075V254.455C70.1775 255.121 66.9762 255.464 63.765 255.48C57.34 255.48 52.392 253.545 52.392 247.69C52.392 242.402 56.654 239.894 63.765 239.894H66.552V238.366ZM79.623 231.255C83.5066 229.84 87.6011 229.091 91.734 229.039C98.332 229.039 102.597 231.485 102.597 239.046V254.971H95.717V239.501C95.717 236.659 94.184 235.186 91.223 235.186C89.6031 235.191 87.993 235.44 86.447 235.923V254.971H79.622L79.623 231.255ZM144.452 254.224C141.027 255.072 137.514 255.512 133.986 255.535C126.653 255.535 122.046 253.262 122.046 245.757V229.605H128.931V245.185C128.931 248.427 130.351 249.909 133.929 249.909C135.151 249.893 136.37 249.778 137.573 249.565V229.605H144.452V254.224ZM151.066 231.255C154.95 229.84 159.045 229.091 163.178 229.039C169.772 229.039 174.038 231.485 174.038 239.046V254.971H167.16V239.501C167.16 236.659 165.622 235.186 162.664 235.186C161.045 235.191 159.435 235.439 157.89 235.923V254.971H151.066V231.255ZM196.879 249.397C195.79 249.594 194.685 249.69 193.579 249.684C188.748 249.684 185.732 246.953 185.732 242.122C185.732 237.628 188.521 235.068 192.671 235.068C194.115 235.021 195.552 235.293 196.879 235.866V249.397ZM196.879 221.227V229.839C195.361 229.245 193.737 228.973 192.108 229.039C184.199 229.039 178.798 234.266 178.798 242.344C178.798 250.878 184.598 255.537 193.357 255.537C196.841 255.557 200.315 255.156 203.703 254.343V221.227H196.879ZM108.99 221.23H115.812V254.972H108.99V221.23Z" fill="white"/>
</svg>
